<?xml version="1.0" encoding="UTF-8" standalone="no"?>
<!-- Created with Inkscape (http://www.inkscape.org/) -->

<svg
   xmlns:dc="http://purl.org/dc/elements/1.1/"
   xmlns:cc="http://creativecommons.org/ns#"
   xmlns:rdf="http://www.w3.org/1999/02/22-rdf-syntax-ns#"
   xmlns:svg="http://www.w3.org/2000/svg"
   xmlns="http://www.w3.org/2000/svg"
   xmlns:xlink="http://www.w3.org/1999/xlink"
   xmlns:sodipodi="http://sodipodi.sourceforge.net/DTD/sodipodi-0.dtd"
   xmlns:inkscape="http://www.inkscape.org/namespaces/inkscape"
   width="48"
   height="48"
   viewBox="0 0 48 48.000001"
   id="svg2"
   version="1.1"
   inkscape:version="0.91 r"
   sodipodi:docname="droidHealth.svg"
   inkscape:export-filename="/home/paulo/Dropbox/Trab. Android Study Jam/droidHealth5.png"
   inkscape:export-xdpi="432.19366"
   inkscape:export-ydpi="432.19366">
  <defs
     id="defs4">
    <linearGradient
       inkscape:collect="always"
       id="linearGradient4162">
      <stop
         style="stop-color:#000000;stop-opacity:1;"
         offset="0"
         id="stop4164" />
      <stop
         style="stop-color:#000000;stop-opacity:0;"
         offset="1"
         id="stop4166" />
    </linearGradient>
    <linearGradient
       inkscape:collect="always"
       id="linearGradient4521">
      <stop
         style="stop-color:#ffffff;stop-opacity:0.1"
         offset="0"
         id="stop4523" />
      <stop
         style="stop-color:#ffffff;stop-opacity:0"
         offset="1"
         id="stop4525" />
    </linearGradient>
    <filter
       inkscape:collect="always"
       style="color-interpolation-filters:sRGB"
       id="filter4478"
       x="-0.048"
       width="1.096"
       y="-0.048"
       height="1.096">
      <feGaussianBlur
         inkscape:collect="always"
         stdDeviation="0.76"
         id="feGaussianBlur4480" />
    </filter>
    <linearGradient
       inkscape:collect="always"
       xlink:href="#linearGradient4521"
       id="linearGradient4527"
       x1="5"
       y1="5"
       x2="43"
       y2="43"
       gradientUnits="userSpaceOnUse" />
    <linearGradient
       inkscape:collect="always"
       xlink:href="#linearGradient4162"
       id="linearGradient4168"
       x1="24.673685"
       y1="16.168421"
       x2="43.36842"
       y2="42.189472"
       gradientUnits="userSpaceOnUse" />
  </defs>
  <sodipodi:namedview
     id="base"
     pagecolor="#ffffff"
     bordercolor="#666666"
     borderopacity="1.0"
     inkscape:pageopacity="0.0"
     inkscape:pageshadow="2"
     inkscape:zoom="11.88"
     inkscape:cx="1.6936024"
     inkscape:cy="20.632997"
     inkscape:document-units="px"
     inkscape:current-layer="layer4"
     showgrid="false"
     inkscape:snap-bbox="true"
     units="px"
     inkscape:bbox-paths="true"
     inkscape:bbox-nodes="true"
     inkscape:snap-bbox-edge-midpoints="true"
     inkscape:snap-bbox-midpoints="true"
     inkscape:snap-page="true"
     inkscape:object-paths="false"
     inkscape:snap-intersection-paths="false"
     inkscape:object-nodes="true"
     inkscape:snap-smooth-nodes="true"
     inkscape:window-width="1366"
     inkscape:window-height="741"
     inkscape:window-x="0"
     inkscape:window-y="0"
     inkscape:window-maximized="1"
     showguides="false"
     inkscape:snap-nodes="false">
    <inkscape:grid
       type="xygrid"
       id="grid3361" />
  </sodipodi:namedview>
  <metadata
     id="metadata7">
    <rdf:RDF>
      <cc:Work
         rdf:about="">
        <dc:format>image/svg+xml</dc:format>
        <dc:type
           rdf:resource="http://purl.org/dc/dcmitype/StillImage" />
        <dc:title />
      </cc:Work>
    </rdf:RDF>
  </metadata>
  <g
     inkscape:groupmode="layer"
     id="layer3"
     inkscape:label="shadow"
     style="display:inline"
     sodipodi:insensitive="true">
    <rect
       style="display:inline;opacity:0.2;fill:#000000;fill-opacity:1;stroke:none;stroke-width:1;stroke-miterlimit:4;stroke-dasharray:none;stroke-opacity:1;filter:url(#filter4478)"
       id="rect4212-3"
       width="38"
       height="38"
       x="5.000001"
       y="5.8239999"
       rx="5.1978445"
       ry="5.1978445" />
  </g>
  <g
     inkscape:groupmode="layer"
     id="layer2"
     inkscape:label="foreground"
     style="display:inline"
     sodipodi:insensitive="true">
    <rect
       style="fill:#ffffff;fill-opacity:1;stroke:none;stroke-width:1;stroke-miterlimit:4;stroke-dasharray:none;stroke-opacity:1"
       id="rect4212"
       width="38"
       height="38"
       x="5"
       y="5"
       rx="5.1978445"
       ry="5.1978445" />
  </g>
  <g
     inkscape:groupmode="layer"
     id="layer9"
     inkscape:label="ShadowIcon"
     sodipodi:insensitive="true">
    <path
       style="opacity:0.05;fill:url(#linearGradient4168);fill-opacity:1;stroke:none;stroke-width:1;stroke-miterlimit:4;stroke-dasharray:none;stroke-opacity:1"
       d="m 34.230968,13.375 8.788064,8.928617 -0.04871,3.553209 -0.03125,10.768042 c -0.01635,5.634426 -5.605968,5.397229 -5.605968,5.397229 l -6.720741,0 c 0,0 -8.495255,-7.567989 -8.399624,-8.348593 L 24,19.084729 C 24.460432,15.326387 34.230968,13.375 34.230968,13.375 Z"
       id="rect4218"
       inkscape:connector-curvature="0"
       sodipodi:nodetypes="cccsccssc" />
  </g>
  <g
     inkscape:label="Color"
     inkscape:groupmode="layer"
     id="layer1"
     transform="translate(0,-1004.3622)"
     style="display:inline"
     sodipodi:insensitive="true">
    <path
       style="fill:#e57373;fill-opacity:1;stroke:none;stroke-width:1;stroke-miterlimit:4;stroke-dasharray:none;stroke-opacity:1"
       d="m 11.701644,1020.3571 c 4.653121,-8.7246 12.297891,-0.163 12.297891,-0.163 0,0 6.896237,-8.5616 12.131,0.163 5.234762,8.7246 -12.214455,19.9305 -12.214455,19.9305 0,0 -16.867559,-11.2059 -12.214436,-19.9305 z"
       id="rect4189"
       inkscape:connector-curvature="0"
       sodipodi:nodetypes="zczcz" />
  </g>
  <g
     inkscape:groupmode="layer"
     id="layer4"
     inkscape:label="Finish Borders"
     style="display:inline">
    <path
       style="display:inline;opacity:0.2;fill:#ffffff;fill-opacity:1;stroke:none;stroke-width:1;stroke-miterlimit:4;stroke-dasharray:none;stroke-opacity:1"
       d="M 10.197266,5 C 7.3176598,5 5,7.3176598 5,10.197266 l 0,1 C 5,8.3176598 7.3176598,6 10.197266,6 L 37.802734,6 C 40.68234,6 43,8.3176598 43,11.197266 l 0,-1 C 43,7.3176598 40.68234,5 37.802734,5 L 10.197266,5 Z"
       id="rect4212-2"
       inkscape:connector-curvature="0" />
    <path
       id="path4503"
       d="M 10.197266,43 C 7.3176598,43 5,40.68234 5,37.802734 l 0,-1 C 5,39.68234 7.3176598,42 10.197266,42 l 27.605468,0 C 40.68234,42 43,39.68234 43,36.802734 l 0,1 C 43,40.68234 40.68234,43 37.802734,43 l -27.605468,0 z"
       style="display:inline;opacity:0.2;fill:#000000;fill-opacity:1;stroke:none;stroke-width:1;stroke-miterlimit:4;stroke-dasharray:none;stroke-opacity:1"
       inkscape:connector-curvature="0" />
    <path
       style="display:inline;opacity:0.2;fill:#3e2723;fill-opacity:1;stroke:none;stroke-width:1;stroke-miterlimit:4;stroke-dasharray:none;stroke-opacity:1"
       d="m 36.97663,18.322266 c 0.377031,8.040843 -13.177734,16.751953 -13.177734,16.751953 0,0 -11.563373,-7.689972 -12.890625,-15.289062 0.477661,7.886603 13,16.214843 13,16.214843 0,0 14.618414,-9.395046 13.068359,-17.677734 z"
       id="rect4189-8"
       inkscape:connector-curvature="0" />
    <path
       style="display:inline;opacity:0.2;fill:#ffffff;fill-opacity:1;stroke:none;stroke-width:1;stroke-miterlimit:4;stroke-dasharray:none;stroke-opacity:1"
       d="m 17.123097,12.003455 c -1.874481,-0.03622 -3.828224,0.918887 -5.427734,3.917969 -0.515758,0.967044 -0.753731,1.965234 -0.792969,2.974609 0.124141,-0.667689 0.339041,-1.328573 0.683594,-1.974609 4.653121,-8.7246008 12.296875,-0.16211 12.296875,-0.16211 0,0 6.896096,-8.5624908 12.130859,0.16211 0.751752,1.252919 1.024003,2.55832 0.958985,3.873047 0.293396,-1.651123 0.09445,-3.302876 -0.847657,-4.873047 -5.234763,-8.7246005 -12.130859,-0.16211 -12.130859,-0.16211 0,0 -3.292538,-3.686703 -6.871094,-3.755859 z"
       id="rect4189-6"
       inkscape:connector-curvature="0" />
  </g>
  <g
     inkscape:groupmode="layer"
     id="layer5"
     inkscape:label="Finish Ilumination"
     style="display:inline"
     sodipodi:insensitive="true">
    <rect
       style="display:inline;fill:url(#linearGradient4527);fill-opacity:1;stroke:none;stroke-width:1;stroke-miterlimit:4;stroke-dasharray:none;stroke-opacity:1"
       id="rect4212-6"
       width="38"
       height="38"
       x="5"
       y="5"
       rx="5.1978445"
       ry="5.1978445" />
  </g>
  <g
     inkscape:groupmode="layer"
     id="layer6"
     inkscape:label="Paper"
     style="display:inline;opacity:1"
     sodipodi:insensitive="true">
    <path
       style="display:inline;opacity:0.1;fill:#000000;fill-opacity:1;stroke:none;stroke-width:1;stroke-miterlimit:4;stroke-dasharray:none;stroke-opacity:1"
       d="m 30.490361,12.002331 c -3.521314,0.06916 -6.490234,3.755859 -6.490234,3.755859 l 0,20.03711 c 0.480299,-0.310848 17.291327,-11.274225 12.130859,-19.875 -1.799449,-2.999082 -3.796127,-3.954194 -5.640625,-3.917969 z"
       id="rect4189-2"
       inkscape:connector-curvature="0" />
  </g>
</svg>
